<?xml version="1.0" encoding="UTF-8" standalone="no"?>
<svg
   width="64"
   height="64"
   version="1.1"
   id="svg20"
   xmlns="http://www.w3.org/2000/svg"
   xmlns:svg="http://www.w3.org/2000/svg">
  <defs
     id="defs24" />
  <rect
     style="opacity:0.2;stroke-width:0.999996"
     width="56"
     height="44"
     x="4.0000005"
     y="12"
     rx="2.8"
     ry="2.2"
     id="rect4339" />
  <rect
     style="display:inline;fill:#1d2324;fill-opacity:1;stroke-width:0.999996"
     width="56"
     height="44"
     x="4.0000005"
     y="11"
     rx="2.8"
     ry="2.2"
     id="rect4341" />
  <rect
     style="display:none;fill:#0f56d9;fill-opacity:1;stroke:#424242;stroke-width:0;stroke-linecap:square;stroke-miterlimit:3;paint-order:markers fill stroke"
     id="rect3338"
     width="48"
     height="7.999999"
     x="8.000001"
     y="6.0000005"
     rx="2.5846152"
     ry="2.8" />
  <path
     id="rect4341-1"
     style="display:inline;fill:#0f56d9;fill-opacity:1"
     d="M 6.800781,9 C 5.249583,9 4,10.249583 4,11.800781 V 17 H 60 V 11.800781 C 60,10.249583 58.75042,9 57.19922,9 Z" />
  <path
     style="display:inline;opacity:0.1;fill:#ffffff"
     d="M 6.800781,9 C 5.249581,9 4,10.249581 4,11.800781 v 1 C 4,11.249581 5.249581,10 6.800781,10 h 50.398441 c 1.5512,0 2.80078,1.249581 2.80078,2.800781 v -1 C 60.000002,10.249581 58.750422,9 57.199222,9 Z"
     id="path4343" />
  <path
     style="opacity:0.2"
     d="m 26,7 0,14.945312 A 20,20 0 0 0 12,41 20,20 0 0 0 32,61 20,20 0 0 0 52,41 20,20 0 0 0 38,21.925782 L 38,7 26,7 Z"
     id="path2" />
  <rect
     style="fill:#e4e4e4"
     width="12"
     height="24"
     x="26"
     y="6"
     id="rect4" />
  <circle
     style="fill:#e4e4e4"
     cx="32"
     cy="40"
     r="20"
     id="circle6" />
  <path
     style="opacity:0.2;fill:#ffffff"
     d="M 26 6 L 26 7 L 38 7 L 38 6 L 26 6 z M 38 20.925781 L 38 21.925781 A 20 20 0 0 1 51.978516 40.582031 A 20 20 0 0 0 52 40 A 20 20 0 0 0 38 20.925781 z M 26 20.945312 A 20 20 0 0 0 12 40 A 20 20 0 0 0 12.019531 40.398438 A 20 20 0 0 1 26 21.945312 L 26 20.945312 z"
     id="path8" />
  <path
     style="display:inline;opacity:0.2"
     d="M 19.371094,35 A 14,14 0 0 0 18,41 14,14 0 0 0 32,55 14,14 0 0 0 46,41 14,14 0 0 0 44.632812,35 Z"
     id="path10" />
  <path
     style="display:inline;fill:#48a422"
     d="M 19.371094,34 A 14,14 0 0 0 18,40 14,14 0 0 0 32,54 14,14 0 0 0 46,40 14,14 0 0 0 44.632812,34 Z"
     id="path12" />
  <path
     id="path3256"
     style="display:inline;fill:#d9780f;fill-opacity:1"
     d="M 18.605469 44 A 14 14 0 0 0 21.310547 49 L 42.689453 49 A 14 14 0 0 0 45.394531 44 L 18.605469 44 z " />
  <path
     id="path1836"
     style="display:inline;fill:#dfc00e;fill-opacity:1"
     d="M 18.058594,39 A 14,14 0 0 0 18,40 14,14 0 0 0 18.605469,44 H 45.394531 A 14,14 0 0 0 46,40 14,14 0 0 0 45.941406,39 Z" />
  <path
     id="path2835"
     style="display:inline;fill:#d9310f;fill-opacity:1"
     d="M 21.310547 49 A 14 14 0 0 0 32 54 A 14 14 0 0 0 42.689453 49 L 21.310547 49 z " />
  <rect
     style="opacity:0.2"
     width="16"
     height="3"
     x="24"
     y="5"
     rx="1.333"
     ry="1.5"
     id="rect14" />
  <rect
     style="fill:#e4e4e4"
     width="16"
     height="3"
     x="24"
     y="4"
     rx="1.333"
     ry="1.5"
     id="rect16" />
  <path
     style="opacity:0.2;fill:#ffffff"
     d="M 25.333984 4 C 24.595318 4 24 4.669 24 5.5 C 24 5.6766673 24.030654 5.8428482 24.080078 6 C 24.263133 5.4179479 24.752355 5 25.333984 5 L 38.666016 5 C 39.247645 5 39.736867 5.4179479 39.919922 6 C 39.969346 5.8428482 40 5.6766673 40 5.5 C 40 4.669 39.404682 4 38.666016 4 L 25.333984 4 z"
     id="path18" />
</svg>
