<?xml version="1.0" encoding="UTF-8" standalone="no"?>
<svg
   version="1.1"
   id="svg2"
   viewBox="0 0 200 50"
   height="50"
   width="200"
   xmlns="http://www.w3.org/2000/svg"
   xmlns:svg="http://www.w3.org/2000/svg">
  <defs
     id="defs4" />
  <rect
     style="fill:none;fill-rule:evenodd;stroke:none;stroke-width:0;stroke-linecap:square;stroke-miterlimit:3;stroke-dasharray:none;paint-order:markers fill stroke;opacity:0"
     id="rect636"
     width="200"
     height="50"
     x="0"
     y="0" />
  <rect
     style="fill:background_active;fill-opacity:1;stroke:none;stroke-width:1.31158;stroke-linecap:butt;stroke-linejoin:round;stroke-miterlimit:4;stroke-dasharray:none;stroke-dashoffset:0;stroke-opacity:1"
     id="rect1671-5"
     width="192"
     height="24"
     x="4"
     y="13" />
  <rect
     style="opacity:1;fill:topline_active;fill-opacity:1;fill-rule:evenodd;stroke:none;stroke-width:0;stroke-linecap:square;stroke-miterlimit:3;stroke-dasharray:none;paint-order:markers fill stroke"
     id="rect4690"
     width="192"
     height="3"
     x="4"
     y="13" />
  <path
     style="opacity:1;fill:deco_active;fill-opacity:1;fill-rule:evenodd;stroke:none;stroke-width:0;stroke-linecap:square;stroke-miterlimit:3;stroke-dasharray:none;paint-order:markers fill stroke"
     d="m 112,22 v 2 l 2,2 -2,2 v 2 h 2 l 2,-2 2,2 h 2 v -2 l -2,-2 2,-2 v -2 h -2 l -2,2 -2,-2 z"
     id="path5134" />
  <path
     style="fill:deco_active_pressed;fill-opacity:1;fill-rule:evenodd;stroke:none;stroke-width:0;stroke-linecap:square;stroke-miterlimit:3;stroke-dasharray:none;paint-order:markers fill stroke"
     d="m 176,22 v 2 l 2,2 -2,2 v 2 h 2 l 2,-2 2,2 h 2 v -2 l -2,-2 2,-2 v -2 h -2 l -2,2 -2,-2 z"
     id="path5134-1" />
  <path
     style="opacity:1;fill:deco_active;fill-opacity:1;fill-rule:evenodd;stroke:none;stroke-width:0;stroke-linecap:square;stroke-miterlimit:3;stroke-dasharray:none;paint-order:markers fill stroke"
     d="m 80,25 v 2 h 8 v -2 z"
     id="path6240" />
  <rect
     style="opacity:1;fill:deco_active;fill-opacity:1;fill-rule:evenodd;stroke:none;stroke-width:0;stroke-linecap:square;stroke-miterlimit:3;stroke-dasharray:none;paint-order:markers fill stroke"
     id="rect7116"
     width="8"
     height="8"
     x="52"
     y="22" />
  <rect
     style="opacity:1;fill:background_active;fill-opacity:1;fill-rule:evenodd;stroke:none;stroke-width:0;stroke-linecap:square;stroke-miterlimit:3;stroke-dasharray:none;paint-order:markers fill stroke"
     id="rect7118"
     width="4"
     height="4"
     x="54"
     y="24" />
</svg>
