<?xml version="1.0" encoding="UTF-8" standalone="no"?>
<!-- Created with Inkscape (http://www.inkscape.org/) -->

<svg
   width="24"
   height="24"
   viewBox="0 0 24 24"
   version="1.1"
   id="svg5"
   xmlns="http://www.w3.org/2000/svg"
   xmlns:svg="http://www.w3.org/2000/svg">
  <defs
     id="defs2" />
  <rect
     style="fill:topline_inactive;fill-opacity:1;fill-rule:evenodd;stroke:#c3d5f6;stroke-width:0;stroke-linecap:square;stroke-miterlimit:3;paint-order:markers fill stroke"
     id="rect265"
     width="24"
     height="2"
     x="0"
     y="0" />
  <rect
     style="fill:background_inactive;fill-opacity:1;fill-rule:evenodd;stroke:#c3d5f6;stroke-width:0;stroke-linecap:square;stroke-miterlimit:3;paint-order:markers fill stroke"
     id="rect267"
     width="24"
     height="22"
     x="0"
     y="2" />
  <path
     id="path18653"
     style="fill:deco_inactive;fill-opacity:1;fill-rule:evenodd;stroke:#c3d5f6;stroke-width:0;stroke-linecap:square;stroke-miterlimit:3;paint-order:markers fill stroke"
     d="M 11.990234 9 A 4 4 0 0 0 8 13.007812 A 4 4 0 0 0 12.003906 17 A 4 4 0 0 0 16 13 L 14 13 A 2 2 0 0 1 12.001953 15 A 2 2 0 0 1 10 13.003906 A 2 2 0 0 1 11.994141 11 A 2 2 0 0 1 14 12.992188 L 16 12.986328 A 4 4 0 0 0 11.990234 9 z " />
</svg>
