<?xml version="1.0" encoding="UTF-8" standalone="no"?>
<!-- Created with Inkscape (http://www.inkscape.org/) -->

<svg
   width="28"
   height="28"
   viewBox="0 0 28 28"
   version="1.1"
   id="svg405"
   xml:space="preserve"
   xmlns="http://www.w3.org/2000/svg"
   xmlns:svg="http://www.w3.org/2000/svg"><defs
     id="defs402" /><rect
     style="display:inline;fill:background_inactive;fill-opacity:1;stroke:none;stroke-width:1;stroke-linecap:butt;stroke-linejoin:round;stroke-miterlimit:4;stroke-dasharray:none;stroke-dashoffset:0;stroke-opacity:1"
     id="rect4138"
     width="28"
     height="28"
     x="0"
     y="0" /><path
     id="path4068-7-5-8"
     d="m 14,5 c -5.52283,3e-5 -10,4.47716 -10,10 0,5.52284 4.47717,9.99997 10,10 5.52283,-3e-5 10,-4.47716 10,-10 C 24,9.47716 19.52283,5.00003 14,5 Z m -3.99609,6 h 1 c 0.0138,-1.2e-4 0.0197,-4.7e-4 0.0293,0 0.25479,0.011 0.50985,0.12844 0.6875,0.3125 l 2.28125,2.28125 2.31055,-2.28125 C 16.57787,11.08201 16.7591,11.007 17,11 h 1 v 1 c 0,0.28647 -0.0345,0.55067 -0.25,0.75 l -2.2793,2.28125 2.24805,2.25 C 17.90685,17.46941 18,17.73471 18,18 v 1 h -1 c -0.26524,-10e-6 -0.53051,-0.0931 -0.71875,-0.28125 L 14.00195,16.4375 11.7207,18.71875 C 11.53274,18.90693 11.26719,19 11.00195,19 h -0.99804 v -1 c 0,-0.26528 0.0921,-0.5306 0.28125,-0.71875 l 2.27929,-2.25 L 10.28516,12.75 C 10.07451,12.55538 9.98204,12.28075 10.00391,12 Z"
     style="fill:highlight_inactive;fill-opacity:1;stroke:none;stroke-width:0;stroke-linecap:butt;stroke-linejoin:miter;stroke-miterlimit:4;stroke-dasharray:none;stroke-dashoffset:0;stroke-opacity:1" /></svg>
