<?xml version="1.0" encoding="UTF-8" standalone="no"?>
<svg
   version="1.1"
   id="svg2"
   viewBox="0 0 200 50"
   height="50"
   width="200"
   xmlns="http://www.w3.org/2000/svg"
   xmlns:svg="http://www.w3.org/2000/svg">
  <defs
     id="defs4" />
  <rect
     style="fill:none;fill-rule:evenodd;stroke:none;stroke-width:0;stroke-linecap:square;stroke-miterlimit:3;stroke-dasharray:none;paint-order:markers fill stroke;opacity:0"
     id="rect636"
     width="200"
     height="50"
     x="0"
     y="0" />
  <rect
     style="fill:background_active;fill-opacity:1;stroke:none;stroke-width:0;stroke-linecap:butt;stroke-linejoin:round;stroke-miterlimit:4;stroke-dasharray:none;stroke-dashoffset:0;stroke-opacity:1"
     id="rect1671-5"
     width="192"
     height="28"
     x="4"
     y="11" />
  <rect
     style="fill:deco_active_close;fill-opacity:1;fill-rule:evenodd;stroke:none;stroke-width:0;stroke-linecap:square;stroke-miterlimit:2;stroke-opacity:1;paint-order:markers fill stroke;stroke-dasharray:none"
     id="rect1685-7"
     width="8"
     height="8"
     x="112"
     y="22" />
  <path
     id="path4068-7-5-8"
     d="m 115.99999,16 c -5.52283,3e-5 -10,4.47716 -10,10 0,5.52284 4.47717,9.99997 10,10 5.52283,-3e-5 10,-4.47716 10,-10 0,-5.52284 -4.47717,-9.99997 -10,-10 z m -3.99609,6 h 1 c 0.0138,-1.2e-4 0.0197,-4.7e-4 0.0293,0 0.25479,0.011 0.50985,0.12844 0.6875,0.3125 l 2.28125,2.28125 2.31056,-2.28125 c 0.26535,-0.23049 0.44658,-0.3055 0.68748,-0.3125 h 1 v 1 c 0,0.28647 -0.0345,0.55067 -0.25,0.75 l -2.2793,2.28125 2.24805,2.25 c 0.1881,0.18816 0.28125,0.45346 0.28125,0.71875 v 1 h -1 c -0.26524,-10e-6 -0.53051,-0.0931 -0.71875,-0.28125 l -2.2793,-2.28125 -2.28125,2.28125 C 113.53273,29.90693 113.26718,30 113.00194,30 h -0.99804 v -1 c 0,-0.26528 0.0921,-0.5306 0.28125,-0.71875 l 2.27929,-2.25 L 112.28515,23.75 C 112.0745,23.55538 111.98203,23.28075 112.0039,23 Z"
     style="fill:highlight_active;fill-opacity:1;stroke:none;stroke-width:0;stroke-linecap:butt;stroke-linejoin:miter;stroke-miterlimit:4;stroke-dasharray:none;stroke-dashoffset:0;stroke-opacity:1" />
  <path
     style="display:inline;fill:highlight_active;fill-opacity:1;stroke:none;stroke-width:0;stroke-linecap:butt;stroke-linejoin:miter;stroke-miterlimit:4;stroke-dasharray:none;stroke-dashoffset:0;stroke-opacity:1"
     d="m 182,14 c -6.6274,3.6e-5 -12,5.372592 -12,12 0,6.627408 5.3726,11.999964 12,12 6.6274,-3.6e-5 12,-5.372592 12,-12 0,-6.627408 -5.3726,-11.999964 -12,-12 z m -5,7 h 1 c 1,0 1,0 2,1 l 2,2 2,-2 c 1,-1 1,-1 2,-1 h 1 v 1 c 0,1 0,1 -1,2 l -2,2 2,2 c 1,1 1,1 1,2 v 1 h -1 c -1,0 -1,0 -2,-1 l -2,-2 -2,2 c -1,1 -1,1 -2,1 h -1 v -1 c 0,-1 0,-1 1,-2 l 2,-2 -2,-2 c -1,-1 -1,-1 -1,-2 z"
     id="path1317-1" />
  <rect
     style="fill:topline_active;fill-opacity:1;fill-rule:evenodd;stroke-width:0;stroke-linecap:square;stroke-miterlimit:3;paint-order:markers fill stroke;stroke:none"
     id="rect23981-1"
     width="192"
     height="2"
     x="4"
     y="11" />
  <path
     d="m 58.40578,22 h 4.503772 c 0.599703,0 1.087046,0.490736 1.090416,1.090469 v 4.503723 z m 3.206174,7.999971 h -4.52154 C 56.490647,29.999971 56,29.509316 56,28.90957 v -4.521557 l 5.611954,5.611958"
     style="display:inline;fill:deco_active;fill-opacity:1;fill-rule:evenodd;stroke:none;stroke-width:0;enable-background:new;stroke-dasharray:none"
     id="path4293-4-9-0-2" />
  <rect
     style="fill:deco_active;fill-opacity:1;stroke:none;stroke-width:0;stroke-linecap:square;stroke-miterlimit:3;stroke-dasharray:none;paint-order:markers fill stroke"
     id="rect889"
     width="8"
     height="2"
     x="84"
     y="25" />
</svg>
