<?xml version="1.0" encoding="UTF-8" standalone="no"?>
<!-- Created with Inkscape (http://www.inkscape.org/) -->

<svg
   width="32"
   height="32"
   viewBox="0 0 32 32"
   version="1.1"
   id="svg5"
   xmlns="http://www.w3.org/2000/svg"
   xmlns:svg="http://www.w3.org/2000/svg">
  <defs
     id="defs2" />
  <g
     id="layer1">
    <rect
       style="fill:highlight_active;fill-opacity:1;fill-rule:evenodd;stroke:#c3d5f6;stroke-width:0;stroke-linecap:square;stroke-miterlimit:3;paint-order:markers fill stroke"
       id="rect265"
       width="32"
       height="32"
       x="0"
       y="0" />
  </g>
  <path
     id="path18780"
     style="fill:deco_active_pressed;fill-rule:evenodd;stroke-width:0;stroke-linecap:square;stroke-miterlimit:3;paint-order:markers fill stroke;fill-opacity:1"
     d="M 15.984375 11 A 6 6 0 0 0 10 17.009766 A 6 6 0 0 0 16.005859 23 A 6 6 0 0 0 22 17 L 19.5 17 A 3.5 3.5 0 0 1 16.003906 20.5 A 3.5 3.5 0 0 1 12.5 17.005859 A 3.5 3.5 0 0 1 15.990234 13.5 A 3.5 3.5 0 0 1 19.5 16.988281 L 22 16.978516 A 6 6 0 0 0 15.984375 11 z " />
</svg>
