<?xml version="1.0" encoding="UTF-8" standalone="no"?>
<svg
   version="1.1"
   id="svg2"
   viewBox="0 0 200 50"
   height="50"
   width="200"
   xmlns="http://www.w3.org/2000/svg"
   xmlns:svg="http://www.w3.org/2000/svg"
   xmlns:rdf="http://www.w3.org/1999/02/22-rdf-syntax-ns#"
   xmlns:cc="http://creativecommons.org/ns#"
   xmlns:dc="http://purl.org/dc/elements/1.1/">
  <defs
     id="defs4" />
  <rect
     style="fill:none;fill-rule:evenodd;stroke:none;stroke-width:0;stroke-linecap:square;stroke-miterlimit:3;stroke-dasharray:none;paint-order:markers fill stroke;opacity:0"
     id="rect636"
     width="200"
     height="50"
     x="0"
     y="0" />
  <rect
     style="fill:background_active;fill-opacity:1;stroke:none;stroke-width:1.31158;stroke-linecap:butt;stroke-linejoin:round;stroke-miterlimit:4;stroke-dasharray:none;stroke-dashoffset:0;stroke-opacity:1"
     id="rect1671-5"
     width="192"
     height="32"
     x="4"
     y="9" />
  <path
     style="display:inline;fill:deco_active;fill-opacity:1;stroke:none;stroke-width:2;stroke-dasharray:none;stroke-opacity:1"
     d="m 54,633.36213 h 5 v 5 h -2 v -3 h -3"
     id="path8355"
     transform="translate(-3,-612.36222)" />
  <path
     style="display:inline;fill:deco_active;fill-opacity:1;stroke:none;stroke-width:2;stroke-dasharray:none;stroke-opacity:1"
     d="m 56,641.36213 h -5 v -5 h 2 v 3 h 3"
     id="path8594"
     transform="translate(-3,-612.36222)" />
  <path
     style="opacity:1;fill:deco_active;fill-opacity:1"
     id="path1385"
     d="m 51,604.36213 h 8 v 2 h -8 z"
     transform="translate(29,-579.36222)" />
  <path
     id="path2"
     d="M 88.000097,582.36216 C 94.075128,582.36216 99,577.43728 99,571.36215 c 0,-6.07513 -4.924872,-11 -10.999903,-11 -6.07521,0 -11.000097,4.92487 -11.000097,11 0,6.07514 4.924887,11.00001 11.000097,11.00001"
     style="display:inline;opacity:1;fill:highlight_active;fill-opacity:1;fill-rule:evenodd;stroke:highlight_active;stroke-width:2;stroke-dasharray:none;stroke-opacity:1"
     transform="translate(92,-546.36222)" />
  <path
     style="display:inline;opacity:1;fill:deco_active_pressed;fill-opacity:1;stroke-width:0;stroke-dasharray:none"
     id="path1443"
     d="M 85.127999,567.36215 84,568.49015 l 2.872,2.872 -2.872,2.872 1.127999,1.128 2.872001,-2.872 2.872,2.872 1.128,-1.128 -2.872001,-2.872 2.872001,-2.872 -1.128,-1.128 -2.872,2.872 z"
     transform="translate(92,-546.36222)" />
  <path
     id="path2-0-3"
     d="m 55.000097,582.36216 c 6.07503,0 10.999903,-4.92485 10.999903,-11 0,-6.07514 -4.924873,-11 -10.999903,-11 -6.075211,0 -11.000097,4.92486 -11.000097,11 0,6.07515 4.924886,11 11.000097,11"
     style="display:inline;opacity:1;fill:none;fill-opacity:1;fill-rule:evenodd;stroke:deco_active_close;stroke-width:2;stroke-dasharray:none;stroke-opacity:1"
     transform="translate(61,-546.36222)" />
  <path
     style="display:inline;opacity:1;fill:deco_active_close;stroke-width:0;stroke:deco_active_close;stroke-opacity:1;fill-opacity:1;stroke-dasharray:none"
     id="path1691"
     d="M 52.127999,567.36216 51,568.49016 l 2.872,2.872 -2.872,2.872 1.127999,1.128 2.872001,-2.872 2.872,2.872 1.128,-1.128 -2.872001,-2.872 2.872001,-2.872 -1.128,-1.128 -2.872,2.872 z"
     transform="translate(61,-546.36222)" />
</svg>
