<?xml version="1.0" encoding="UTF-8" standalone="no"?>
<!-- Created with Inkscape (http://www.inkscape.org/) -->

<svg
   width="32"
   height="32"
   viewBox="0 0 32 32"
   version="1.1"
   id="svg467"
   xmlns="http://www.w3.org/2000/svg"
   xmlns:svg="http://www.w3.org/2000/svg">
  <defs
     id="defs464" />
  <rect
     y="0"
     x="0"
     height="32"
     width="32"
     id="rect1895"
     style="fill:background_active;fill-opacity:1;stroke:none;stroke-width:1.31158;stroke-linecap:butt;stroke-linejoin:round;stroke-miterlimit:4;stroke-dasharray:none;stroke-dashoffset:0;stroke-opacity:1" />
  <path
     d="m 16,9.9999952 a 6,6 0 0 0 -6,5.9999998 6,6 0 0 0 6,6 6,6 0 0 0 6,-6 6,6 0 0 0 -6,-5.9999998 z m 0,1.9999998 a 4,4 0 0 1 4,4 4,4 0 0 1 -4,4 4,4 0 0 1 -4,-4 4,4 0 0 1 4,-4 z"
     id="path1921"
     style="fill:deco_active" />
</svg>
